<?xml version="1.0" standalone="no"?>
<!DOCTYPE svg PUBLIC "-//W3C//DTD SVG 20010904//EN"
 "http://www.w3.org/TR/2001/REC-SVG-20010904/DTD/svg10.dtd">
<svg version="1.0" xmlns="http://www.w3.org/2000/svg"
 width="300.000000pt" height="301.000000pt" viewBox="0 0 300.000000 301.000000"
 preserveAspectRatio="xMidYMid meet">
<metadata>
Created by potrace 1.10, written by Peter Selinger 2001-2011
</metadata>
<g transform="translate(0.000000,301.000000) scale(0.100000,-0.100000)"
fill="#000000" stroke="none">
<path d="M1053 2812 c-365 -108 -663 -198 -663 -202 0 -4 172 -143 382 -311
211 -167 477 -379 593 -471 115 -92 217 -168 225 -168 24 -1 1360 464 1358
471 -3 7 -1081 796 -1168 855 -19 13 -41 23 -50 23 -8 -1 -313 -89 -677 -197z
m687 52 c77 -34 112 -74 108 -122 -5 -60 -40 -77 -156 -77 -113 0 -182 25
-232 82 -103 117 96 200 280 117z m-742 -224 c60 -26 112 -80 112 -116 0 -114
-266 -123 -382 -13 -58 54 -51 108 17 144 44 24 183 16 253 -15z m1095 -46
c60 -21 107 -53 128 -88 25 -40 24 -49 -6 -85 -82 -96 -361 -34 -400 90 -8 24
16 63 47 80 57 31 149 32 231 3z m-736 -246 c70 -26 133 -84 133 -122 0 -51
-73 -96 -155 -96 -85 0 -216 54 -250 102 -33 48 -14 103 45 127 46 18 165 13
227 -11z m1133 -47 c137 -52 180 -148 88 -198 -54 -29 -177 -24 -255 11 -126
58 -155 142 -63 188 49 25 164 24 230 -1z m-796 -236 c86 -14 186 -88 186
-136 0 -61 -56 -93 -160 -92 -178 1 -316 117 -236 198 13 13 41 27 62 30 22 4
44 8 49 10 10 4 25 2 99 -10z"/>
<path d="M152 1787 c-141 -706 -149 -753 -134 -771 47 -52 1145 -987 1152
-979 4 4 80 346 170 758 90 413 165 758 168 767 3 12 -121 117 -469 394 -425
339 -694 552 -725 576 -8 5 -56 -217 -162 -745z m294 464 c71 -43 115 -136
117 -241 3 -215 -204 -212 -268 3 -50 170 37 307 151 238z m755 -614 c49 -33
87 -93 106 -170 13 -57 14 -77 4 -120 -45 -197 -260 -100 -278 126 -7 79 8
128 48 162 38 31 76 32 120 2z m-487 -170 c73 -45 119 -140 118 -248 -1 -187
-159 -209 -250 -35 -23 44 -27 64 -27 138 0 94 15 129 66 155 34 18 49 16 93
-10z m-477 -162 c62 -18 133 -151 133 -251 0 -178 -147 -220 -237 -67 -34 58
-55 146 -47 201 10 71 71 139 114 128 8 -3 25 -7 37 -11z m775 -652 c100 -91
129 -266 56 -348 -25 -29 -37 -35 -69 -35 -32 0 -48 8 -83 40 -133 123 -120
380 20 380 25 0 45 -10 76 -37z"/>
<path d="M2301 1791 c-619 -214 -686 -240 -693 -262 -11 -36 -337 -1522 -334
-1526 2 -3 1330 493 1352 505 16 8 32 61 78 259 32 136 75 322 96 413 22 91
73 311 115 490 41 179 78 333 81 343 3 9 2 17 -3 16 -4 0 -316 -107 -692 -238z
m534 -26 c20 -19 25 -34 25 -72 -1 -158 -204 -320 -303 -243 -59 46 -39 153
44 244 85 93 183 123 234 71z m-509 -619 c98 -83 -68 -336 -220 -336 -123 0
-117 172 9 289 81 74 159 92 211 47z m-577 -617 c35 -12 61 -53 61 -97 0 -46
-57 -147 -107 -192 -54 -48 -136 -76 -176 -61 -129 49 -21 299 153 352 35 10
33 10 69 -2z"/>
</g>
</svg>
