<?xml version="1.0" standalone="no"?>
<!DOCTYPE svg PUBLIC "-//W3C//DTD SVG 20010904//EN"
 "http://www.w3.org/TR/2001/REC-SVG-20010904/DTD/svg10.dtd">
<svg version="1.0" xmlns="http://www.w3.org/2000/svg"
 width="180.000000pt" height="180.000000pt" viewBox="0 0 180.000000 180.000000"
 preserveAspectRatio="xMidYMid meet">
<metadata>
Created by potrace 1.14, written by Peter Selinger 2001-2017
</metadata>
<g transform="translate(0.000000,180.000000) scale(0.100000,-0.100000)"
fill="#000000" stroke="none">
<path d="M660 1690 c-201 -60 -378 -114 -395 -120 l-30 -12 39 -31 c149 -121
654 -520 666 -527 10 -5 82 15 205 56 323 109 600 207 609 215 5 4 -53 53
-127 108 -290 215 -579 421 -590 420 -7 0 -176 -49 -377 -109z m390 18 c54
-28 74 -68 47 -96 -28 -27 -142 -23 -190 7 -117 72 15 153 143 89z m-501 -118
c93 -17 140 -71 100 -111 -42 -42 -200 -14 -229 42 -14 26 9 66 42 72 13 2 26
5 29 6 4 0 30 -3 58 -9z m728 -49 c70 -32 81 -87 23 -111 -65 -27 -186 12
-205 64 -8 24 -6 31 14 47 31 25 112 25 168 0z m-434 -154 c93 -52 26 -136
-85 -107 -86 24 -126 59 -113 100 14 44 125 48 198 7z m678 -22 c27 -14 59
-51 59 -67 0 -5 -9 -17 -20 -28 -15 -15 -33 -20 -75 -20 -67 0 -114 18 -143
55 -20 25 -21 31 -9 49 8 11 25 24 38 28 33 10 116 0 150 -17z m-487 -136 c39
-11 96 -57 96 -78 0 -6 -9 -20 -20 -31 -38 -38 -177 -17 -218 33 -20 23 -11
60 18 74 31 16 73 16 124 2z"/>
<path d="M173 1463 c-72 -336 -163 -811 -161 -833 2 -22 41 -61 193 -191 282
-243 483 -409 492 -409 8 0 204 867 203 902 0 14 -693 578 -711 578 -3 0 -11
-21 -16 -47z m112 -136 c76 -76 66 -217 -15 -217 -80 0 -136 165 -75 225 32
33 51 31 90 -8z m456 -368 c61 -66 65 -183 6 -210 -82 -37 -167 137 -106 215
28 35 64 34 100 -5z m-311 -85 c36 -22 59 -62 66 -118 18 -126 -86 -159 -144
-46 -30 58 -26 134 8 162 27 22 35 22 70 2z m-281 -99 c37 -18 71 -91 71 -150
0 -36 -6 -52 -25 -71 -31 -30 -57 -26 -97 16 -52 56 -60 150 -16 197 25 27 30
28 67 8z m463 -392 c37 -41 49 -67 50 -119 1 -51 -26 -97 -59 -102 -11 -2 -34
9 -52 23 -56 48 -73 160 -30 211 19 23 63 17 91 -13z"/>
<path d="M1392 1075 c-210 -73 -393 -140 -405 -148 -21 -14 -33 -59 -116 -434
-118 -541 -109 -487 -80 -480 13 3 196 70 407 149 l383 143 14 50 c8 27 55
223 105 435 50 212 93 393 96 403 3 10 0 17 -8 16 -7 0 -185 -60 -396 -134z
m313 -29 c18 -27 13 -64 -17 -113 -43 -72 -137 -95 -167 -42 -13 23 -12 30 9
73 43 89 141 135 175 82z m-311 -362 c25 -24 20 -76 -13 -120 -42 -59 -78 -79
-133 -75 -46 3 -46 88 -1 142 53 63 115 85 147 53z m-338 -372 c30 -20 35 -51
16 -95 -27 -62 -83 -107 -132 -107 -51 0 -67 26 -51 80 25 85 120 154 167 122z"/>
</g>
</svg>
